<?xml version="1.0" encoding="utf-8"?>
<!-- Generator: Adobe Illustrator 23.0.3, SVG Export Plug-In . SVG Version: 6.00 Build 0)  -->
<svg version="1.1" id="Calque_1" xmlns="http://www.w3.org/2000/svg" xmlns:xlink="http://www.w3.org/1999/xlink" x="0px" y="0px"
	 viewBox="0 0 392.3 50.1" style="enable-background:new 0 0 392.3 50.1;" xml:space="preserve">
<style type="text/css">
	.st0{fill:#00488D;}
	.st1{clip-path:url(#SVGID_2_);fill:none;stroke:#0354A3;stroke-width:3;stroke-miterlimit:10;}
	.st2{fill:#EA007E;}
	.st3{fill:#BF006B;}
	.st4{fill:#FFEA07;}
	.st5{fill:#DED903;}
	.st6{fill:#F9A703;}
	.st7{fill:none;stroke:#EB8D05;stroke-width:4;stroke-miterlimit:10;}
</style>
<g>
	<rect x="196" class="st0" width="98.2" height="99.7"/>
	<g>
		<defs>
			<rect id="SVGID_1_" x="196" width="98.2" height="99.7"/>
		</defs>
		<clipPath id="SVGID_2_">
			<use xlink:href="#SVGID_1_"  style="overflow:visible;"/>
		</clipPath>
		<title>Plan de travail 1</title>
		<path class="st1" d="M301.2,0c-3,3.3-6.8,5.7-11,7c-5.4,1.6-10.1,0.8-15,0c-5.6-0.9-5.7-1.9-12-3c-4.3-0.9-8.6-1.2-13-1
			c-5.2,0.4-10.3,1.7-15,4c-7.7,3.7-6.8,6.4-14,10c-5.6,2.8-11.8,4.2-18,4c-6.1-0.2-6.2-1.9-15-3c-5.4-0.7-10.2-1.3-16,0
			c-5.6,1.3-10.8,4.1-15,8"/>
		<path class="st1" d="M298.2-11c-3,3.3-6.8,5.7-11,7c-5.4,1.6-10.1,0.8-15,0c-5.6-0.9-5.7-1.9-12-3c-4.3-0.9-8.6-1.2-13-1
			c-5.2,0.4-10.3,1.7-15,4c-7.7,3.7-6.8,6.4-14,10c-5.6,2.8-11.8,4.2-18,4c-6.1-0.2-6.2-1.9-15-3c-5.4-0.7-10.2-1.3-16,0
			c-5.6,1.3-10.8,4.1-15,8"/>
		<path class="st1" d="M309.2,22c-3,3.3-6.8,5.7-11,7c-5.4,1.6-10.1,0.8-15,0c-5.6-0.9-5.7-1.9-12-3c-4.3-0.9-8.6-1.2-13-1
			c-5.2,0.4-10.3,1.7-15,4c-7.7,3.7-6.8,6.4-14,10c-5.6,2.8-11.8,4.2-18,4c-6.1-0.2-6.2-1.9-15-3c-5.4-0.7-10.2-1.3-16,0
			c-5.6,1.3-10.8,4.1-15,8"/>
		<path class="st1" d="M306.2,11c-3,3.3-6.8,5.7-11,7c-5.4,1.6-10.1,0.8-15,0c-5.6-0.9-5.7-1.9-12-3c-4.3-0.9-8.6-1.2-13-1
			c-5.2,0.4-10.3,1.7-15,4c-7.7,3.7-6.8,6.4-14,10c-5.6,2.8-11.8,4.2-18,4c-6.1-0.2-6.2-1.9-15-3c-5.4-0.7-10.2-1.3-16,0
			c-5.6,1.3-10.8,4.1-15,8"/>
		<path class="st1" d="M314.2,45c-3,3.3-6.8,5.7-11,7c-5.4,1.6-10.1,0.8-15,0c-5.6-0.9-5.7-1.9-12-3c-4.3-0.9-8.6-1.2-13-1
			c-5.2,0.4-10.3,1.7-15,4c-7.7,3.7-6.8,6.4-14,10c-5.6,2.8-11.8,4.2-18,4c-6.1-0.2-6.2-1.9-15-3c-5.4-0.7-10.2-1.3-16,0
			c-5.6,1.3-10.8,4.1-15,8"/>
		<path class="st1" d="M311.2,34c-3,3.3-6.8,5.7-11,7c-5.4,1.6-10.1,0.8-15,0c-5.6-0.9-5.7-1.9-12-3c-4.3-0.9-8.6-1.2-13-1
			c-5.2,0.4-10.3,1.7-15,4c-7.7,3.7-6.8,6.4-14,10c-5.6,2.8-11.8,4.2-18,4c-6.1-0.2-6.2-1.9-15-3c-5.4-0.7-10.2-1.3-16,0
			c-5.6,1.3-10.8,4.1-15,8"/>
		<path class="st1" d="M322.2,67c-3,3.3-6.8,5.7-11,7c-5.4,1.6-10.1,0.8-15,0c-5.6-0.9-5.7-1.9-12-3c-4.3-0.9-8.6-1.2-13-1
			c-5.2,0.4-10.3,1.7-15,4c-7.7,3.7-6.8,6.4-14,10c-5.6,2.8-11.8,4.2-18,4c-6.1-0.2-6.2-1.9-15-3c-5.4-0.7-10.2-1.3-16,0
			c-5.6,1.3-10.8,4.1-15,8"/>
		<path class="st1" d="M319.2,56c-3,3.3-6.8,5.7-11,7c-5.4,1.6-10.1,0.8-15,0c-5.6-0.9-5.7-1.9-12-3c-4.3-0.9-8.6-1.2-13-1
			c-5.2,0.4-10.3,1.7-15,4c-7.7,3.7-6.8,6.4-14,10c-5.6,2.8-11.8,4.2-18,4c-6.1-0.2-6.2-1.9-15-3c-5.4-0.7-10.2-1.3-16,0
			c-5.6,1.3-10.8,4.1-15,8"/>
		<path class="st1" d="M328.2,89c-3,3.3-6.8,5.7-11,7c-5.4,1.6-10.1,0.8-15,0c-5.6-0.9-5.7-1.9-12-3c-4.3-0.9-8.6-1.2-13-1
			c-5.2,0.4-10.3,1.7-15,4c-7.7,3.7-6.8,6.4-14,10c-5.6,2.8-11.8,4.2-18,4c-6.1-0.2-6.2-1.9-15-3c-5.4-0.7-10.2-1.3-16,0
			c-5.6,1.3-10.8,4.1-15,8"/>
		<path class="st1" d="M325.2,78c-3,3.3-6.8,5.7-11,7c-5.4,1.6-10.1,0.8-15,0c-5.6-0.9-5.7-1.9-12-3c-4.3-0.9-8.6-1.2-13-1
			c-5.2,0.4-10.3,1.7-15,4c-7.7,3.7-6.8,6.4-14,10c-5.6,2.8-11.8,4.2-18,4c-6.1-0.2-6.2-1.9-15-3c-5.4-0.7-10.2-1.3-16,0
			c-5.6,1.3-10.8,4.1-15,8"/>
	</g>
</g>
<g>
	<g>
		<rect x="98" class="st2" width="98.2" height="99.7"/>
	</g>
	<polygon class="st3" points="102.1,2 103,4 105.2,4.3 103.6,5.8 104,8 102.1,7 100.1,8 100.5,5.8 98.9,4.3 101.1,4 	"/>
	<polygon class="st3" points="121.4,2 122.3,4 124.5,4.3 122.9,5.8 123.3,8 121.4,7 119.4,8 119.8,5.8 118.2,4.3 120.4,4 	"/>
	<polygon class="st3" points="140.7,2 141.7,4 143.8,4.3 142.3,5.8 142.6,8 140.7,7 138.7,8 139.1,5.8 137.5,4.3 139.7,4 	"/>
	<polygon class="st3" points="160,2 161,4 163.2,4.3 161.6,5.8 162,8 160,7 158.1,8 158.4,5.8 156.9,4.3 159,4 	"/>
	<polygon class="st3" points="179.7,2 180.7,4 182.8,4.3 181.3,5.8 181.6,8 179.7,7 177.7,8 178.1,5.8 176.5,4.3 178.7,4 	"/>
	<polygon class="st3" points="112.1,12 113,14 115.2,14.3 113.6,15.8 114,18 112.1,17 110.1,18 110.5,15.8 108.9,14.3 111.1,14 	"/>
	<polygon class="st3" points="131.4,12 132.3,14 134.5,14.3 133,15.8 133.3,18 131.4,17 129.4,18 129.8,15.8 128.2,14.3 130.4,14 	
		"/>
	<polygon class="st3" points="150.7,12 151.7,14 153.8,14.3 152.3,15.8 152.6,18 150.7,17 148.7,18 149.1,15.8 147.5,14.3 149.7,14 
			"/>
	<polygon class="st3" points="170,12 171,14 173.2,14.3 171.6,15.8 172,18 170,17 168.1,18 168.4,15.8 166.9,14.3 169,14 	"/>
	<polygon class="st3" points="189.7,12 190.7,14 192.8,14.3 191.3,15.8 191.6,18 189.7,17 187.7,18 188.1,15.8 186.5,14.3 188.7,14 
			"/>
	<polygon class="st3" points="102.1,22 103,24 105.2,24.3 103.6,25.8 104,28 102.1,27 100.1,28 100.5,25.8 98.9,24.3 101.1,24 	"/>
	<polygon class="st3" points="121.4,22 122.3,24 124.5,24.3 122.9,25.8 123.3,28 121.4,27 119.4,28 119.8,25.8 118.2,24.3 120.4,24 
			"/>
	<polygon class="st3" points="140.7,22 141.7,24 143.8,24.3 142.3,25.8 142.6,28 140.7,27 138.7,28 139.1,25.8 137.5,24.3 139.7,24 
			"/>
	<polygon class="st3" points="160,22 161,24 163.2,24.3 161.6,25.8 162,28 160,27 158.1,28 158.4,25.8 156.9,24.3 159,24 	"/>
	<polygon class="st3" points="179.7,22 180.7,24 182.8,24.3 181.3,25.8 181.6,28 179.7,27 177.7,28 178.1,25.8 176.5,24.3 178.7,24 
			"/>
	<polygon class="st3" points="112.1,32 113,34 115.2,34.3 113.6,35.8 114,38 112.1,37 110.1,38 110.5,35.8 108.9,34.3 111.1,34 	"/>
	<polygon class="st3" points="131.4,32 132.3,34 134.5,34.3 133,35.8 133.3,38 131.4,37 129.4,38 129.8,35.8 128.2,34.3 130.4,34 	
		"/>
	<polygon class="st3" points="150.7,32 151.7,34 153.8,34.3 152.3,35.8 152.6,38 150.7,37 148.7,38 149.1,35.8 147.5,34.3 149.7,34 
			"/>
	<polygon class="st3" points="170,32 171,34 173.2,34.3 171.6,35.8 172,38 170,37 168.1,38 168.4,35.8 166.9,34.3 169,34 	"/>
	<polygon class="st3" points="189.7,32 190.7,34 192.8,34.3 191.3,35.8 191.6,38 189.7,37 187.7,38 188.1,35.8 186.5,34.3 188.7,34 
			"/>
	<polygon class="st3" points="102.1,42 103,44 105.2,44.3 103.6,45.8 104,48 102.1,47 100.1,48 100.5,45.8 98.9,44.3 101.1,44 	"/>
	<polygon class="st3" points="121.4,42 122.3,44 124.5,44.3 122.9,45.8 123.3,48 121.4,47 119.4,48 119.8,45.8 118.2,44.3 120.4,44 
			"/>
	<polygon class="st3" points="140.7,42 141.7,44 143.8,44.3 142.3,45.8 142.6,48 140.7,47 138.7,48 139.1,45.8 137.5,44.3 139.7,44 
			"/>
	<polygon class="st3" points="160,42 161,44 163.2,44.3 161.6,45.8 162,48 160,47 158.1,48 158.4,45.8 156.9,44.3 159,44 	"/>
	<polygon class="st3" points="179.7,42 180.7,44 182.8,44.3 181.3,45.8 181.6,48 179.7,47 177.7,48 178.1,45.8 176.5,44.3 178.7,44 
			"/>
	<polygon class="st3" points="112.1,52 113,54 115.2,54.3 113.6,55.8 114,58 112.1,57 110.1,58 110.5,55.8 108.9,54.3 111.1,54 	"/>
	<polygon class="st3" points="131.4,52 132.3,54 134.5,54.3 133,55.8 133.3,58 131.4,57 129.4,58 129.8,55.8 128.2,54.3 130.4,54 	
		"/>
	<polygon class="st3" points="150.7,52 151.7,54 153.8,54.3 152.3,55.8 152.6,58 150.7,57 148.7,58 149.1,55.8 147.5,54.3 149.7,54 
			"/>
	<polygon class="st3" points="170,52 171,54 173.2,54.3 171.6,55.8 172,58 170,57 168.1,58 168.4,55.8 166.9,54.3 169,54 	"/>
	<polygon class="st3" points="189.7,52 190.7,54 192.8,54.3 191.3,55.8 191.6,58 189.7,57 187.7,58 188.1,55.8 186.5,54.3 188.7,54 
			"/>
	<polygon class="st3" points="102.1,62 103,64 105.2,64.3 103.6,65.8 104,68 102.1,67 100.1,68 100.5,65.8 98.9,64.3 101.1,64 	"/>
	<polygon class="st3" points="121.4,62 122.3,64 124.5,64.3 122.9,65.8 123.3,68 121.4,67 119.4,68 119.8,65.8 118.2,64.3 120.4,64 
			"/>
	<polygon class="st3" points="140.7,62 141.7,64 143.8,64.3 142.3,65.8 142.6,68 140.7,67 138.7,68 139.1,65.8 137.5,64.3 139.7,64 
			"/>
	<polygon class="st3" points="160,62 161,64 163.2,64.3 161.6,65.8 162,68 160,67 158.1,68 158.4,65.8 156.9,64.3 159,64 	"/>
	<polygon class="st3" points="179.7,62 180.7,64 182.8,64.3 181.3,65.8 181.6,68 179.7,67 177.7,68 178.1,65.8 176.5,64.3 178.7,64 
			"/>
	<polygon class="st3" points="112.1,72 113,74 115.2,74.3 113.6,75.8 114,78 112.1,77 110.1,78 110.5,75.8 108.9,74.3 111.1,74 	"/>
	<polygon class="st3" points="131.4,72 132.3,74 134.5,74.3 133,75.8 133.3,78 131.4,77 129.4,78 129.8,75.8 128.2,74.3 130.4,74 	
		"/>
	<polygon class="st3" points="150.7,72 151.7,74 153.8,74.3 152.3,75.8 152.6,78 150.7,77 148.7,78 149.1,75.8 147.5,74.3 149.7,74 
			"/>
	<polygon class="st3" points="170,72 171,74 173.2,74.3 171.6,75.8 172,78 170,77 168.1,78 168.4,75.8 166.9,74.3 169,74 	"/>
	<polygon class="st3" points="189.7,72 190.7,74 192.8,74.3 191.3,75.8 191.6,78 189.7,77 187.7,78 188.1,75.8 186.5,74.3 188.7,74 
			"/>
	<polygon class="st3" points="102.1,82 103,84 105.2,84.3 103.6,85.8 104,88 102.1,87 100.1,88 100.5,85.8 98.9,84.3 101.1,84 	"/>
	<polygon class="st3" points="121.4,82 122.3,84 124.5,84.3 122.9,85.8 123.3,88 121.4,87 119.4,88 119.8,85.8 118.2,84.3 120.4,84 
			"/>
	<polygon class="st3" points="140.7,82 141.7,84 143.8,84.3 142.3,85.8 142.6,88 140.7,87 138.7,88 139.1,85.8 137.5,84.3 139.7,84 
			"/>
	<polygon class="st3" points="160,82 161,84 163.2,84.3 161.6,85.8 162,88 160,87 158.1,88 158.4,85.8 156.9,84.3 159,84 	"/>
	<polygon class="st3" points="179.7,82 180.7,84 182.8,84.3 181.3,85.8 181.6,88 179.7,87 177.7,88 178.1,85.8 176.5,84.3 178.7,84 
			"/>
	<polygon class="st3" points="112.1,92 113,94 115.2,94.3 113.6,95.8 114,98 112.1,97 110.1,98 110.5,95.8 108.9,94.3 111.1,94 	"/>
	<polygon class="st3" points="131.4,92 132.3,94 134.5,94.3 133,95.8 133.3,98 131.4,97 129.4,98 129.8,95.8 128.2,94.3 130.4,94 	
		"/>
	<polygon class="st3" points="150.7,92 151.7,94 153.8,94.3 152.3,95.8 152.6,98 150.7,97 148.7,98 149.1,95.8 147.5,94.3 149.7,94 
			"/>
	<polygon class="st3" points="170,92 171,94 173.2,94.3 171.6,95.8 172,98 170,97 168.1,98 168.4,95.8 166.9,94.3 169,94 	"/>
	<polygon class="st3" points="189.7,92 190.7,94 192.8,94.3 191.3,95.8 191.6,98 189.7,97 187.7,98 188.1,95.8 186.5,94.3 188.7,94 
			"/>
</g>
<g>
	<g>
		<g>
			<g>
				<rect x="294.1" class="st4" width="98.2" height="99.7"/>
			</g>
		</g>
		<g>
			<circle class="st5" cx="305" cy="5.1" r="4.3"/>
		</g>
		<g>
			<circle class="st5" cx="320" cy="5.1" r="4.3"/>
		</g>
		<g>
			<circle class="st5" cx="335" cy="5.1" r="4.3"/>
		</g>
		<g>
			<circle class="st5" cx="350" cy="5.1" r="4.3"/>
		</g>
		<g>
			<circle class="st5" cx="365" cy="5.1" r="4.3"/>
		</g>
		<g>
			<circle class="st5" cx="380" cy="5.1" r="4.3"/>
		</g>
		<g>
			<circle class="st5" cx="312.5" cy="15.1" r="4.3"/>
		</g>
		<g>
			<circle class="st5" cx="298.5" cy="15.1" r="4.3"/>
		</g>
		<g>
			<circle class="st5" cx="327.5" cy="15.1" r="4.3"/>
		</g>
		<g>
			<circle class="st5" cx="342.5" cy="15.1" r="4.3"/>
		</g>
		<g>
			<circle class="st5" cx="357.5" cy="15.1" r="4.3"/>
		</g>
		<g>
			<circle class="st5" cx="372.5" cy="15.1" r="4.3"/>
		</g>
		<g>
			<circle class="st5" cx="387.5" cy="15.1" r="4.3"/>
		</g>
		<g>
			<circle class="st5" cx="305" cy="25.1" r="4.3"/>
		</g>
		<g>
			<circle class="st5" cx="320" cy="25.1" r="4.3"/>
		</g>
		<g>
			<circle class="st5" cx="335" cy="25.1" r="4.3"/>
		</g>
		<g>
			<circle class="st5" cx="350" cy="25.1" r="4.3"/>
		</g>
		<g>
			<circle class="st5" cx="365" cy="25.1" r="4.3"/>
		</g>
		<g>
			<circle class="st5" cx="380" cy="25.1" r="4.3"/>
		</g>
		<g>
			<circle class="st5" cx="312.5" cy="35.1" r="4.3"/>
		</g>
		<g>
			<circle class="st5" cx="298.5" cy="35.1" r="4.3"/>
		</g>
		<g>
			<circle class="st5" cx="327.5" cy="35.1" r="4.3"/>
		</g>
		<g>
			<circle class="st5" cx="342.5" cy="35.1" r="4.3"/>
		</g>
		<g>
			<circle class="st5" cx="357.5" cy="35.1" r="4.3"/>
		</g>
		<g>
			<circle class="st5" cx="372.5" cy="35.1" r="4.3"/>
		</g>
		<g>
			<circle class="st5" cx="387.5" cy="35.1" r="4.3"/>
		</g>
		<g>
			<circle class="st5" cx="305" cy="45.1" r="4.3"/>
		</g>
		<g>
			<circle class="st5" cx="320" cy="45.1" r="4.3"/>
		</g>
		<g>
			<circle class="st5" cx="335" cy="45.1" r="4.3"/>
		</g>
		<g>
			<circle class="st5" cx="350" cy="45.1" r="4.3"/>
		</g>
		<g>
			<circle class="st5" cx="365" cy="45.1" r="4.3"/>
		</g>
		<g>
			<circle class="st5" cx="380" cy="45.1" r="4.3"/>
		</g>
		<g>
			<circle class="st5" cx="312.5" cy="55.1" r="4.3"/>
		</g>
		<g>
			<circle class="st5" cx="298.5" cy="55.1" r="4.3"/>
		</g>
		<g>
			<circle class="st5" cx="327.5" cy="55.1" r="4.3"/>
		</g>
		<g>
			<circle class="st5" cx="342.5" cy="55.1" r="4.3"/>
		</g>
		<g>
			<circle class="st5" cx="357.5" cy="55.1" r="4.3"/>
		</g>
		<g>
			<circle class="st5" cx="372.5" cy="55.1" r="4.3"/>
		</g>
		<g>
			<circle class="st5" cx="387.5" cy="55.1" r="4.3"/>
		</g>
		<g>
			<circle class="st5" cx="305" cy="65.1" r="4.3"/>
		</g>
		<g>
			<circle class="st5" cx="320" cy="65.1" r="4.3"/>
		</g>
		<g>
			<circle class="st5" cx="335" cy="65.1" r="4.3"/>
		</g>
		<g>
			<circle class="st5" cx="350" cy="65.1" r="4.3"/>
		</g>
		<g>
			<circle class="st5" cx="365" cy="65.1" r="4.3"/>
		</g>
		<g>
			<circle class="st5" cx="380" cy="65.1" r="4.3"/>
		</g>
		<g>
			<circle class="st5" cx="312.5" cy="75.1" r="4.3"/>
		</g>
		<g>
			<circle class="st5" cx="298.5" cy="75.1" r="4.3"/>
		</g>
		<g>
			<circle class="st5" cx="327.5" cy="75.1" r="4.3"/>
		</g>
		<g>
			<circle class="st5" cx="342.5" cy="75.1" r="4.3"/>
		</g>
		<g>
			<circle class="st5" cx="357.5" cy="75.1" r="4.3"/>
		</g>
		<g>
			<circle class="st5" cx="372.5" cy="75.1" r="4.3"/>
		</g>
		<g>
			<circle class="st5" cx="387.5" cy="75.1" r="4.3"/>
		</g>
		<g>
			<circle class="st5" cx="305" cy="85.1" r="4.3"/>
		</g>
		<g>
			<circle class="st5" cx="320" cy="85.1" r="4.3"/>
		</g>
		<g>
			<circle class="st5" cx="335" cy="85.1" r="4.3"/>
		</g>
		<g>
			<circle class="st5" cx="350" cy="85.1" r="4.3"/>
		</g>
		<g>
			<circle class="st5" cx="365" cy="85.1" r="4.3"/>
		</g>
		<g>
			<circle class="st5" cx="380" cy="85.1" r="4.3"/>
		</g>
		<g>
			<circle class="st5" cx="312.5" cy="95.1" r="4.3"/>
		</g>
		<g>
			<circle class="st5" cx="298.5" cy="95.1" r="4.3"/>
		</g>
		<g>
			<circle class="st5" cx="327.5" cy="95.1" r="4.3"/>
		</g>
		<g>
			<circle class="st5" cx="342.5" cy="95.1" r="4.3"/>
		</g>
		<g>
			<circle class="st5" cx="357.5" cy="95.1" r="4.3"/>
		</g>
		<g>
			<circle class="st5" cx="372.5" cy="95.1" r="4.3"/>
		</g>
		<g>
			<circle class="st5" cx="387.5" cy="95.1" r="4.3"/>
		</g>
	</g>
</g>
<g>
	<g>
		<g>
			<g>
				<rect x="-0.2" class="st6" width="98.2" height="99.7"/>
			</g>
		</g>
	</g>
	<line class="st7" x1="-0.2" y1="2" x2="98" y2="2"/>
	<line class="st7" x1="-0.2" y1="10" x2="98" y2="10"/>
	<line class="st7" x1="-0.2" y1="18" x2="98" y2="18"/>
	<line class="st7" x1="-0.2" y1="26" x2="98" y2="26"/>
	<line class="st7" x1="-0.2" y1="34" x2="98" y2="34"/>
	<line class="st7" x1="-0.2" y1="42" x2="98" y2="42"/>
	<line class="st7" x1="-0.2" y1="50" x2="98" y2="50"/>
	<line class="st7" x1="-0.2" y1="58" x2="98" y2="58"/>
	<line class="st7" x1="-0.2" y1="66" x2="98" y2="66"/>
	<line class="st7" x1="-0.2" y1="74" x2="98" y2="74"/>
	<line class="st7" x1="-0.2" y1="82" x2="98" y2="82"/>
	<line class="st7" x1="-0.2" y1="90" x2="98" y2="90"/>
	<line class="st7" x1="-0.2" y1="97.6" x2="98" y2="97.6"/>
</g>
</svg>
