<?xml version="1.0" encoding="utf-8"?>
<!-- Generator: Adobe Illustrator 23.0.3, SVG Export Plug-In . SVG Version: 6.00 Build 0)  -->
<svg version="1.1" xmlns="http://www.w3.org/2000/svg" xmlns:xlink="http://www.w3.org/1999/xlink" x="0px" y="0px"
	 viewBox="0 0 710 257" style="enable-background:new 0 0 710 257;" xml:space="preserve">
<style type="text/css">
	.st0{display:none;}
	.st1{fill:#1E1E1C;}
	.st2{fill:#FFFFFF;stroke:#FFFFFF;stroke-width:45;stroke-miterlimit:10;}
	.st3{fill:none;stroke:#1E1E1C;stroke-width:10;stroke-miterlimit:10;}
	.st4{fill:#E20315;}
</style>
<g id="Calque_1" class="st0">
	
		<image style="display:inline;overflow:visible;" width="850" height="262" xlink:href="8C77BFCD.jpg"  transform="matrix(1 0 0 1 -76 -2)">
	</image>
</g>
<g id="Calque_2">
	<polyline class="st1" points="30,228 18,48 129,42 157,60 206,61 213,13 323,34 327,38 506,21 498,46 505,47 520,53 526,43 598,23 
		675,52 693,139 673,198 610,228 561,213 510,245 443,240 434,229 342,237 337,228 334,234 294,231 300,247 178,252 178,248 
		103,239 88,226 	"/>
	<g>
		<path class="st2" d="M138,121l-9-26l-14-7l-45,6l9,83l15-2l-3-30l32-7L138,121z M117,125l-27,7l-3-31l22-3l11,9L117,125z"/>
		<path class="st2" d="M202,105l-27,3l-35,86l12,4l9-17l48-1l6,22h20L202,105z"/>
		<path class="st2" d="M306,80l-19-10l-35-5l-14,84l13,6l6-34l36,1l18-11l1-22L306,80z M290,110l-31,2l5-33l24,1l8,11L290,110z"/>
		<path class="st2" d="M351.1,107l-23.7,2.6L296.8,185l10.5,3.5l7.9-14.9l42.1-0.9l5.3,19.3H380L351.1,107z"/>
		<polygon class="st2" points="364.6,82.1 400,130 402,163 416,161 415.1,123.6 441.4,71 425.2,72 406,121 381,76 		"/>
		<path class="st2" d="M488.3,96l-25.5,9.9l-16.3,17.7l-4.2,38.2l16.3,24.7l42.4,14.1l26.9-18.4l13.4-23.3l-0.7-27.6l-19.8-25.5
			L488.3,96z"/>
		<path class="st2" d="M630.2,155.6l10.2-23.3l-0.9-22.3l-22.3-27.9l-27-5.6L553,95.1l-5.6,29.8l6.5,24.2l18.6,17.7l29.8,3.7
			L630.2,155.6z"/>
	</g>
	<g>
		<path class="st3" d="M138,121l-9-26l-14-7l-45,6l9,83l15-2l-3-30l32-7L138,121z M117,125l-27,7l-3-31l22-3l11,9L117,125z"/>
		<path class="st3" d="M202,105l-27,3l-35,86l12,4l9-17l48-1l6,22h20L202,105z M165,168l25-53l16,52L165,168z"/>
		<path class="st3" d="M306,80l-19-10l-35-5l-14,84l13,6l6-34l36,1l18-11l1-22L306,80z M290,110l-31,2l5-33l24,1l8,11L290,110z"/>
		<path class="st3" d="M351.1,107l-23.7,2.6L296.8,185l10.5,3.5l7.9-14.9l42.1-0.9l5.3,19.3H380L351.1,107z M318.7,162.2l21.9-46.4
			l14,45.6L318.7,162.2z"/>
		<polygon class="st3" points="364.6,82.1 400,130 402,163 416,161 415.1,123.6 441.4,71 425.2,72 406,121 381,76 		"/>
		<path class="st3" d="M488.3,96l-25.5,9.9l-16.3,17.7l-4.2,38.2l16.3,24.7l42.4,14.1l26.9-18.4l13.4-23.3l-0.7-27.6l-19.8-25.5
			L488.3,96z M526.5,162.5L504.6,183l-21.9,0.7l-23.3-14.8l-2.8-25.5l9.9-22.6l13.4-6.4l19.8-2.8l29,20.5L526.5,162.5z"/>
		<path class="st3" d="M630.2,155.6l10.2-23.3l-0.9-22.3l-22.3-27.9l-27-5.6L553,95.1l-5.6,29.8l6.5,24.2l18.6,17.7l29.8,3.7
			L630.2,155.6z M561.4,137l0.9-27.9l14-14.9l25.1-5.6l18.6,14.9l8.4,21.4l-4.7,13l-11.2,14.9l-32.5,5.6L561.4,137z"/>
	</g>
	<g>
		<path class="st4" d="M138,121l-9-26l-14-7l-45,6l9,83l15-2l-3-30l32-7L138,121z M117,125l-27,7l-3-31l22-3l11,9L117,125z"/>
		<path class="st4" d="M202,105l-27,3l-35,86l12,4l9-17l48-1l6,22h20L202,105z M165,168l25-53l16,52L165,168z"/>
		<path class="st4" d="M306,80l-19-10l-35-5l-14,84l13,6l6-34l36,1l18-11l1-22L306,80z M290,110l-31,2l5-33l24,1l8,11L290,110z"/>
		<path class="st4" d="M351.1,107l-23.7,2.6L296.8,185l10.5,3.5l7.9-14.9l42.1-0.9l5.3,19.3H380L351.1,107z M318.7,162.2l21.9-46.4
			l14,45.6L318.7,162.2z"/>
		<polygon class="st4" points="364.6,82.1 400,130 402,163 416,161 415.1,123.6 441.4,71 425.2,72 406,121 381,76 		"/>
		<path class="st4" d="M526,109l-25-11l-24,1l-30,24l-6,29l20,40l32,6l26-7l19-20l4-32L526,109z M506,183l-30-1l-16-15l-6-27l16-20
			l23-9l14,5l16,12l6,35L506,183z"/>
		<path class="st4" d="M642.3,120.5l-9.2-23.7l-16.4-15.1l-35.5-3.9l-23,15.1L545,132.4l17.1,25l21.7,12.5l25.6-0.7l23.7-18.4
			L642.3,120.5z M580.5,156.1l-19.1-20.4l-0.7-20.4l13.8-21.7l23.7-2.6l21,9.2l5.9,12.5l2.6,18.4l-19.1,27L580.5,156.1z"/>
	</g>
</g>
</svg>
