<svg id="Calque_1" data-name="Calque 1" xmlns="http://www.w3.org/2000/svg" viewBox="0 0 98.21 99.72"><defs><style>.cls-1{fill:#00488d;}.cls-2{fill:none;stroke:#0354a3;stroke-miterlimit:10;stroke-width:3px;}</style></defs><title>Plan de travail 1</title><rect class="cls-1" width="98" height="100"/><path class="cls-2" d="M-7,0A24.63,24.63,0,0,0,4,7c5.38,1.6,10.09.82,15,0,5.61-.93,5.68-1.86,12-3A49,49,0,0,1,44,3,41.75,41.75,0,0,1,59,7c7.71,3.73,6.78,6.36,14,10a38.19,38.19,0,0,0,18,4c6.09-.22,6.19-1.87,15-3,5.36-.69,10.24-1.32,16,0a33.5,33.5,0,0,1,15,8"/><path class="cls-2" d="M-4-11A24.63,24.63,0,0,0,7-4c5.38,1.6,10.09.82,15,0,5.61-.93,5.68-1.86,12-3A49,49,0,0,1,47-8,41.75,41.75,0,0,1,62-4C69.71-.27,68.78,2.36,76,6a38.19,38.19,0,0,0,18,4c6.09-.22,6.19-1.87,15-3,5.36-.69,10.24-1.32,16,0a33.5,33.5,0,0,1,15,8"/><path class="cls-2" d="M-15,22A24.63,24.63,0,0,0-4,29c5.38,1.6,10.09.82,15,0,5.61-.93,5.68-1.86,12-3a49,49,0,0,1,13-1,41.75,41.75,0,0,1,15,4c7.71,3.73,6.78,6.36,14,10a38.19,38.19,0,0,0,18,4c6.09-.22,6.19-1.87,15-3,5.36-.69,10.24-1.32,16,0a33.5,33.5,0,0,1,15,8"/><path class="cls-2" d="M-12,11A24.63,24.63,0,0,0-1,18c5.38,1.6,10.09.82,15,0,5.61-.93,5.68-1.86,12-3a49,49,0,0,1,13-1,41.75,41.75,0,0,1,15,4c7.71,3.73,6.78,6.36,14,10a38.19,38.19,0,0,0,18,4c6.09-.22,6.19-1.87,15-3,5.36-.69,10.24-1.32,16,0a33.5,33.5,0,0,1,15,8"/><path class="cls-2" d="M-20,45A24.63,24.63,0,0,0-9,52c5.38,1.6,10.09.82,15,0,5.61-.93,5.68-1.86,12-3a49,49,0,0,1,13-1,41.75,41.75,0,0,1,15,4c7.71,3.73,6.78,6.36,14,10a38.19,38.19,0,0,0,18,4c6.09-.22,6.19-1.87,15-3,5.36-.69,10.24-1.32,16,0a33.5,33.5,0,0,1,15,8"/><path class="cls-2" d="M-17,34A24.63,24.63,0,0,0-6,41c5.38,1.6,10.09.82,15,0,5.61-.93,5.68-1.86,12-3a49,49,0,0,1,13-1,41.75,41.75,0,0,1,15,4c7.71,3.73,6.78,6.36,14,10a38.19,38.19,0,0,0,18,4c6.09-.22,6.19-1.87,15-3,5.36-.69,10.24-1.32,16,0a33.5,33.5,0,0,1,15,8"/><path class="cls-2" d="M-28,67a24.63,24.63,0,0,0,11,7c5.38,1.6,10.09.82,15,0,5.61-.93,5.68-1.86,12-3a49,49,0,0,1,13-1,41.75,41.75,0,0,1,15,4c7.71,3.73,6.78,6.36,14,10a38.19,38.19,0,0,0,18,4c6.09-.22,6.19-1.87,15-3,5.36-.69,10.24-1.32,16,0a33.5,33.5,0,0,1,15,8"/><path class="cls-2" d="M-25,56a24.63,24.63,0,0,0,11,7c5.38,1.6,10.09.82,15,0,5.61-.93,5.68-1.86,12-3a49,49,0,0,1,13-1,41.75,41.75,0,0,1,15,4c7.71,3.73,6.78,6.36,14,10a38.19,38.19,0,0,0,18,4c6.09-.22,6.19-1.87,15-3,5.36-.69,10.24-1.32,16,0a33.5,33.5,0,0,1,15,8"/><path class="cls-2" d="M-34,89a24.63,24.63,0,0,0,11,7c5.38,1.6,10.09.82,15,0,5.61-.93,5.68-1.86,12-3a49,49,0,0,1,13-1,41.75,41.75,0,0,1,15,4c7.71,3.73,6.78,6.36,14,10a38.19,38.19,0,0,0,18,4c6.09-.22,6.19-1.87,15-3,5.36-.69,10.24-1.32,16,0a33.5,33.5,0,0,1,15,8"/><path class="cls-2" d="M-31,78a24.63,24.63,0,0,0,11,7c5.38,1.6,10.09.82,15,0C.61,84.07.68,83.14,7,82a49,49,0,0,1,13-1,41.75,41.75,0,0,1,15,4c7.71,3.73,6.78,6.36,14,10a38.19,38.19,0,0,0,18,4c6.09-.22,6.19-1.87,15-3,5.36-.69,10.24-1.32,16,0a33.5,33.5,0,0,1,15,8"/></svg>